<svg xmlns="http://www.w3.org/2000/svg" viewBox="0 0 512 512">
  <defs><linearGradient id="g" x1="0" x2="1" y1="0" y2="1"><stop stop-color="#12213a"/><stop offset=".55" stop-color="#7b263b"/><stop offset="1" stop-color="#c7a24e"/></linearGradient><filter id="s" x="-20%" y="-20%" width="140%" height="140%"><feDropShadow dx="0" dy="18" stdDeviation="18" flood-color="#261c12" flood-opacity=".25"/></filter></defs>
  <rect width="512" height="512" rx="112" fill="#fff8e8"/>
  <circle cx="256" cy="256" r="214" fill="url(#g)"/>
  <path d="M164 258h204v78c0 47-38 85-85 85h-34c-47 0-85-38-85-85v-78Z" fill="#fff8e8" filter="url(#s)"/>
  <path d="M363 286h44c24 0 43 19 43 43s-19 43-43 43h-44v-31h38c7 0 13-5 13-12s-6-12-13-12h-38v-31Z" fill="#fff8e8"/>
  <path d="M185 233h162" stroke="#fff8e8" stroke-width="22" stroke-linecap="round"/>
  <path d="M210 197c-26-32 12-55-3-86M265 197c-26-32 12-55-3-86M320 197c-26-32 12-55-3-86" fill="none" stroke="#fff8e8" stroke-width="18" stroke-linecap="round" opacity=".86"/>
  <path d="M187 447h158" stroke="#fff8e8" stroke-width="18" stroke-linecap="round" opacity=".9"/>
</svg>